PathFileType	3	(X/Y/Z)	F:\ViconData\AntennenMessung\Messung1\Session1\ID24.trc
DataRate	CameraRate	NumFrames	NumMarkers	Units	OrigDataRate	OrigDataStartFrame	OrigNumFrames
120.0	120.0	4	70	mm	120.0	158	1260	
Frame#	Time	Ashort			Along			Atop			A4			Bshort			Blong			Btop			B4			Cshort			Clong			Ctop			C4			Dshort			Dlong			Dtop			D4			Eshort			Elong			Etop			E4			Fshort			Flong			Ftop			F4			Gshort			Glong			Gtop			G4			Hshort			Hlong			Htop			H4			I1			I2			I3			I4			I5			WandAshort			WandAlong			WandAtop			WandA4			WandA15			WandBshort			WandB4			WandB5			WandBtop			WandBlong			WandCshort			WandClong			WandCtop			WandC4			WandC5			Acenter			Aantenna			Bcenter			Bantenna			Ccenter			Cantenna			Dcenter			Dantenna			Ecenter			Eantenna			Fcenter			Fantenna			Gcenter			Gantenna			Hcenter			Hantenna			Icenter			Iantenna			
		X1	Y1	Z1	X2	Y2	Z2	X3	Y3	Z3	X4	Y4	Z4	X5	Y5	Z5	X6	Y6	Z6	X7	Y7	Z7	X8	Y8	Z8	X9	Y9	Z9	X10	Y10	Z10	X11	Y11	Z11	X12	Y12	Z12	X13	Y13	Z13	X14	Y14	Z14	X15	Y15	Z15	X16	Y16	Z16	X17	Y17	Z17	X18	Y18	Z18	X19	Y19	Z19	X20	Y20	Z20	X21	Y21	Z21	X22	Y22	Z22	X23	Y23	Z23	X24	Y24	Z24	X25	Y25	Z25	X26	Y26	Z26	X27	Y27	Z27	X28	Y28	Z28	X29	Y29	Z29	X30	Y30	Z30	X31	Y31	Z31	X32	Y32	Z32	X33	Y33	Z33	X34	Y34	Z34	X35	Y35	Z35	X36	Y36	Z36	X37	Y37	Z37	X38	Y38	Z38	X39	Y39	Z39	X40	Y40	Z40	X41	Y41	Z41	X42	Y42	Z42	X43	Y43	Z43	X44	Y44	Z44	X45	Y45	Z45	X46	Y46	Z46	X47	Y47	Z47	X48	Y48	Z48	X49	Y49	Z49	X50	Y50	Z50	X51	Y51	Z51	X52	Y52	Z52	X53	Y53	Z53	X54	Y54	Z54	X55	Y55	Z55	X56	Y56	Z56	X57	Y57	Z57	X58	Y58	Z58	X59	Y59	Z59	X60	Y60	Z60	X61	Y61	Z61	X62	Y62	Z62	X63	Y63	Z63	X64	Y64	Z64	X65	Y65	Z65	X66	Y66	Z66	X67	Y67	Z67	X68	Y68	Z68	X69	Y69	Z69	X70	Y70	Z70	
158	1.3083333	-1038.188	214.56033	-1644.0737	-1109.4602	204.18065	-1599.2644	-1063.8739	172.2189	-1625.2997	-1054.1594	262.31226	-1634.837	-1352.6023	235.07489	1003.3976	-1281.4442	227.13448	1052.4314	-1322.5861	193.81876	1021.0314	-1284.3928	288.02014	1052.7313	814.15833	187.65277	1209.4331	892.19238	178.73785	1179.0966	844.45587	145.48006	1198.4752	860.97986	292.51416	1168.5461	1115.7476	209.69168	-1401.5962	1056.2655	194.16728	-1460.2557	1094.6355	162.08287	-1423.928	1069.7317	239.48381	-1426.1869	-1204.7036	1686.0601	-1562.8242	-1129.1665	1688.2922	-1605.8479	-1173.1993	1724.2406	-1581.7599	-1134.0153	1580.9987	-1603.8607	-1239.5537	1699.1128	1119.5872	-1309.3685	1698.9294	1072.043	-1270.4207	1736.3295	1096.9686	-1244.9668	1593.5933	1106.4918	988.91986	1664.2229	1162.1685	957.69855	1700.2197	1183.9088	922.74707	1661.9968	1215.176	939.80121	1659.4564	1159.8512	999.02454	1668.4657	-1579.4103	1058.7659	1670.005	-1518.6239	1024.9532	1708.0742	-1551.0834	1059.266	1672.1835	-1585.405	-180.51289	1639.1631	-226.20905	-266.29471	1637.7494	-229.21526	-219.22614	1675.3829	-228.88525	-217.29837	1636.532	-259.35718	-220.5905	1640.9635	-180.27057																																														-1069.0077	210.0719	-1624.6971	-1074.2485	248.71329	-1624.0819	-1321.1549	231.56573	1025.0674	-1319.6858	270.31717	1029.2107	847.98059	183.78876	1196.2843	851.54816	222.56187	1194.0667	1088.5205	202.58562	-1428.4465	1082.7336	240.91612	-1432.7228	-1171.9424	1687.0281	-1581.484	-1170.626	1648.0514	-1581.1949	-1271.0972	1699.0298	1098.1058	-1271.804	1660.0543	1099.2941	953.2019	1705.4041	1187.0399	972.9884	1733.6058	1168.7599	1026.418	1669.1715	-1551.5376	1027.8851	1630.2017	-1551.9929	-218.66577	1638.5343	-227.5461	-218.0732	1599.5646	-226.12985
159	1.3166667	-1038.1892	214.4765	-1644.0261	-1109.4358	204.22978	-1599.2649	-1063.884	173.03708	-1625.6842	-1054.1252	262.32498	-1634.8499	-1352.5544	235.29932	1003.3688	-1281.4741	227.2029	1052.3763	-1322.6509	193.81027	1020.9681	-1284.4449	287.9895	1052.7533	814.17682	187.55884	1209.4158	892.58453	179.31927	1178.624	844.33435	145.60297	1198.321	860.97382	292.55069	1168.452	1115.7533	209.69572	-1401.6014	1056.2163	194.11075	-1460.2683	1094.6967	162.19835	-1423.9204	1069.7227	239.50203	-1426.1902	-1204.692	1686.0664	-1562.8289	-1129.1564	1688.3093	-1605.8708	-1173.162	1724.2954	-1581.8254	-1134.0421	1581.0135	-1603.8239	-1239.5807	1699.1454	1119.5966	-1309.3203	1698.84	1072.0065	-1270.4218	1736.3373	1096.9708	-1244.9625	1593.5985	1106.4543	988.9137	1664.1921	1162.1815	957.75275	1700.2262	1183.9977	922.81836	1661.9811	1215.1316	939.83179	1659.4125	1159.8293	999.00415	1668.4819	-1579.4314	1058.7467	1670.0038	-1518.61	1024.9558	1708.0739	-1551.0925	1059.2513	1672.1932	-1585.4077	-180.50847	1639.136	-226.20732	-266.45258	1637.9154	-229.19012	-219.22154	1675.3651	-228.89319	-217.28929	1636.5272	-259.35437	-220.53618	1640.9176	-180.29312																																														-1068.6952	210.0891	-1624.8604	-1073.7161	248.755	-1624.0007	-1321.1344	231.72041	1025.0317	-1319.5846	270.46765	1029.1852	847.57996	184.04863	1196.2979	850.8562	222.85707	1194.2557	1088.5493	202.57452	-1428.4078	1082.7142	240.89957	-1432.6674	-1171.8838	1687.0404	-1581.5237	-1170.5465	1648.0647	-1581.2079	-1271.0457	1699.0077	1098.1249	-1271.6974	1660.0316	1099.33	953.32959	1705.3409	1187.0944	973.16986	1733.5363	1168.8627	1026.4014	1669.1797	-1551.5393	1027.85	1630.2092	-1551.9872	-218.74646	1638.5929	-227.53441	-218.24298	1599.6226	-226.09442
160	1.325	-1038.1987	214.52365	-1644.0393	-1109.4388	204.35927	-1599.338	-1063.8716	172.20265	-1625.2639	-1054.1193	262.28943	-1634.8408	-1352.676	235.10422	1003.42	-1281.4832	227.2135	1052.3816	-1322.5737	193.91057	1020.9462	-1284.4067	288.00565	1052.6626	814.14172	187.48697	1209.3872	892.13019	178.68008	1179.1271	844.38672	145.59665	1198.3192	860.98535	292.56003	1168.4756	1115.7305	209.69565	-1401.6006	1056.2362	194.1237	-1460.229	1094.7245	161.97778	-1423.8795	1069.7242	239.4807	-1426.2242	-1204.6952	1686.0682	-1562.8416	-1129.1659	1688.3368	-1605.8938	-1173.1667	1724.2917	-1581.825	-1134.0176	1580.9928	-1603.854	-1239.5674	1699.1385	1119.5917	-1309.3086	1698.8007	1071.9974	-1270.4276	1736.3252	1096.9773	-1244.8992	1593.7084	1106.2767	988.90485	1664.1874	1162.1796	957.63422	1700.3167	1183.85	922.12347	1662.1377	1215.0284	939.86456	1659.4468	1159.7799	999.00842	1668.4686	-1579.4409	1058.7598	1670.0066	-1518.6232	1024.9508	1708.0812	-1551.0935	1059.2576	1672.1915	-1585.411	-180.51276	1639.1421	-226.21199	-266.46484	1637.9098	-229.17039	-219.22748	1675.363	-228.88329	-217.29314	1636.5289	-259.35913	-220.56238	1640.9316	-180.27142																																														-1068.9553	210.13536	-1624.7402	-1074.1351	248.78615	-1624.2069	-1321.2195	231.61769	1025.0537	-1319.8278	270.36362	1029.2745	847.89905	183.6749	1196.2891	851.47614	222.45543	1194.2214	1088.5438	202.57985	-1428.3916	1082.7098	240.90509	-1432.6505	-1171.8873	1687.0537	-1581.5422	-1170.548	1648.0778	-1581.2465	-1271.0278	1698.9861	1098.1217	-1271.6544	1660.0094	1099.3167	953.01398	1705.6547	1187.0516	973.00787	1733.8209	1168.9436	1026.4136	1669.174	-1551.5466	1027.8788	1630.2041	-1552.0004	-218.74695	1638.5938	-227.52797	-218.23767	1599.6235	-226.09155
161	1.3333333	-1038.2075	214.52577	-1644.0635	-1109.4258	204.39848	-1599.3521	-1064.1542	172.94629	-1625.0814	-1054.1382	262.33597	-1634.8887	-1352.5626	235.2509	1003.425	-1281.3571	227.39568	1052.2712	-1322.5466	193.94978	1020.9062	-1284.3678	288.00467	1052.697	814.09131	187.61891	1209.4631	892.23047	178.73727	1179.0892	844.37579	145.58409	1198.262	860.9668	292.59277	1168.486	1115.7421	209.69653	-1401.604	1056.2054	194.16008	-1460.3226	1094.6615	162.06813	-1423.8805	1069.6932	239.45384	-1426.2323	-1204.6985	1686.0627	-1562.8317	-1129.1637	1688.3086	-1605.871	-1173.1638	1724.29	-1581.8264	-1134.0415	1581.014	-1603.8373	-1239.5632	1699.1288	1119.5931	-1309.2808	1698.7678	1071.9899	-1270.411	1736.3115	1096.974	-1244.9459	1593.6991	1106.1866	988.89764	1664.1917	1162.1697	957.6391	1700.2944	1183.9034	922.82336	1661.9724	1215.1235	939.80042	1659.4556	1159.8083	999.02917	1668.4648	-1579.4142	1058.8696	1670.1672	-1518.6095	1024.9508	1708.0819	-1551.0897	1059.2495	1672.1891	-1585.4148	-180.50168	1639.1554	-226.20844	-266.40475	1637.8635	-229.20358	-219.20885	1675.3682	-228.88472	-217.30054	1636.5168	-259.35031	-220.55595	1640.9285	-180.28789																																														-1069.1587	210.12448	-1624.6318	-1074.3613	248.77309	-1624.1648	-1321.1587	231.78648	1024.9677	-1319.7372	270.53793	1029.1274	847.95355	183.76996	1196.3003	851.58691	222.54919	1194.308	1088.5568	202.60236	-1428.4156	1082.7839	240.93353	-1432.7046	-1171.886	1687.0382	-1581.5278	-1170.5492	1648.0624	-1581.2155	-1271.0038	1698.9659	1098.1254	-1271.6226	1659.9894	1099.327	953.28693	1705.3209	1186.9293	973.08264	1733.4896	1168.6084	1026.4867	1669.246	-1551.514	1028.0278	1630.2787	-1551.9398	-218.70248	1638.5808	-227.54036	-218.16608	1599.6105	-226.11621
